<svg version="1.1" xmlns="http://www.w3.org/2000/svg" xmlns:xlink="http://www.w3.org/1999/xlink" width="149.55067" height="85" viewBox="0,0,149.55067,85"><g transform="translate(-165.22467,-137.5)"><g data-paper-data="{&quot;isPaintingLayer&quot;:true}" fill-rule="nonzero" stroke="none" stroke-linecap="butt" stroke-linejoin="miter" stroke-miterlimit="10" stroke-dasharray="" stroke-dashoffset="0" style="mix-blend-mode: normal"><path d="M224.18891,152.5086h90.58643v54.98281h-90.58643z" fill="#690000" stroke-width="0"/><path d="M287.05861,195.70748c-8.86016,0 -16.04273,-7.03248 -16.04273,-15.70748c0,-8.675 7.18257,-15.70748 16.04273,-15.70748c8.86016,0 16.04274,7.03248 16.04274,15.70748c0,8.675 -7.18258,15.70748 -16.04274,15.70748z" fill="#00c1ff" stroke-width="0"/><path d="M197.59967,187.74998v-15.5h42.75v15.5z" fill="#690000" stroke-width="0"/><path d="M165.22467,194.37498v-28.75h32v28.75z" fill="#ffc500" stroke-width="0"/><path d="M185.84967,199.87498v-39.75h15.75v39.75z" fill="#000000" stroke-width="0"/><path d="M195.5,180c0,23.4721 19.92333,42.5 44.5,42.5c24.57667,0 44.5,-19.0279 44.5,-42.5c0,-23.4721 -19.92333,-42.5 -44.5,-42.5c-24.57667,0 -44.5,19.0279 -44.5,42.5z" fill="#ff0000" stroke-width="none"/><path d="M209.37353,180c0,16.15433 13.71194,29.25 30.62647,29.25c16.91453,0 30.62647,-13.09567 30.62647,-29.25c0,-16.15433 -13.71194,-29.25 -30.62647,-29.25c-16.91453,0 -30.62647,13.09567 -30.62647,29.25z" fill="#ff9400" stroke-width="none"/><path d="M218.79706,180c0,11.18377 9.49288,20.25 21.20294,20.25c11.71006,0 21.20294,-9.06623 21.20294,-20.25c0,-11.18377 -9.49288,-20.25 -21.20294,-20.25c-11.71006,0 -21.20294,9.06623 -21.20294,20.25z" fill="#fff700" stroke-width="none"/></g></g></svg>